HIERARCHY
ROOT hip
{
  OFFSET 0 90.174 2.4664
  CHANNELS 6 Xposition Yposition Zposition Zrotation Xrotation Yrotation
  JOINT abdomen
  {
    OFFSET 0 -1.186 -1.5018
    CHANNELS 6 Xposition Yposition Zposition Zrotation Xrotation Yrotation
    JOINT abdomen2
    {
      OFFSET 0 9.964 0.2134
      CHANNELS 6 Xposition Yposition Zposition Zrotation Xrotation Yrotation
      JOINT chest
      {
        OFFSET 0 13.134 -3.2573
        CHANNELS 6 Xposition Yposition Zposition Zrotation Xrotation Yrotation
        JOINT neck
        {
          OFFSET 0 20.686 -1.6905
          CHANNELS 6 Xposition Yposition Zposition Zrotation Xrotation Yrotation
          JOINT head
          {
            OFFSET 0 7.238 -0.1237
            CHANNELS 6 Xposition Yposition Zposition Zrotation Xrotation Yrotation
            End Site
            {
              OFFSET 0 0 0
            }
          }
        }
        JOINT lCollar
        {
          OFFSET 1.7069 20.075 5.0056
          CHANNELS 6 Xposition Yposition Zposition Zrotation Xrotation Yrotation
          JOINT lShldr
          {
            OFFSET 13.6458 -0.047 -4.849
            CHANNELS 6 Xposition Yposition Zposition Zrotation Xrotation Yrotation
            JOINT lForeArm
            {
              OFFSET 28.3255 -0.9759 2.2888
              CHANNELS 6 Xposition Yposition Zposition Zrotation Xrotation Yrotation
              JOINT lHand
              {
                OFFSET 22.1583 -0.53 10.8316
                CHANNELS 6 Xposition Yposition Zposition Zrotation Xrotation Yrotation
                JOINT lThumb1
                {
                  OFFSET 0.786 0.112 2.5817
                  CHANNELS 6 Xposition Yposition Zposition Zrotation Xrotation Yrotation
                  JOINT lThumb2
                  {
                    OFFSET 0.3601 -0.878 4.2331
                    CHANNELS 6 Xposition Yposition Zposition Zrotation Xrotation Yrotation
                    JOINT lThumb2_End
                    {
                      OFFSET 1.8127 -1.216 2.2227
                      CHANNELS 6 Xposition Yposition Zposition Zrotation Xrotation Yrotation
                      End Site
                      {
                        OFFSET 0.0181 -0.0122 0.0222
                      }
                    }
                  }
                }
                JOINT lCarpal1
                {
                  OFFSET 0.9571 1.114 1.7695
                  CHANNELS 6 Xposition Yposition Zposition Zrotation Xrotation Yrotation
                  JOINT lIndex1
                  {
                    OFFSET 4.1246 0.487 4.1451
                    CHANNELS 6 Xposition Yposition Zposition Zrotation Xrotation Yrotation
                    JOINT lIndex2
                    {
                      OFFSET 3.4052 -1.454 2.7682
                      CHANNELS 6 Xposition Yposition Zposition Zrotation Xrotation Yrotation
                      JOINT lIndex2_End
                      {
                        OFFSET 1.4531 -1.795 1.2713
                        CHANNELS 6 Xposition Yposition Zposition Zrotation Xrotation Yrotation
                        End Site
                        {
                          OFFSET 0.0145 -0.0179 0.0127
                        }
                      }
                    }
                  }
                  JOINT lMid1
                  {
                    OFFSET 5.6954 0.21 2.1184
                    CHANNELS 6 Xposition Yposition Zposition Zrotation Xrotation Yrotation
                    JOINT lMid2
                    {
                      OFFSET 3.9766 -1.54 2.3863
                      CHANNELS 6 Xposition Yposition Zposition Zrotation Xrotation Yrotation
                      JOINT lMid2_End
                      {
                        OFFSET 1.4042 -1.926 1.125
                        CHANNELS 6 Xposition Yposition Zposition Zrotation Xrotation Yrotation
                        End Site
                        {
                          OFFSET 0.014 -0.0193 0.0113
                        }
                      }
                    }
                  }
                }
                JOINT lCarpal2
                {
                  OFFSET 2.0956 0.66 -0.3894
                  CHANNELS 6 Xposition Yposition Zposition Zrotation Xrotation Yrotation
                  JOINT lRing1
                  {
                    OFFSET 5.0395 -0.09 2.4971
                    CHANNELS 6 Xposition Yposition Zposition Zrotation Xrotation Yrotation
                    JOINT lRing2
                    {
                      OFFSET 3.7921 -1.552 1.4806
                      CHANNELS 6 Xposition Yposition Zposition Zrotation Xrotation Yrotation
                      JOINT lRing2_End
                      {
                        OFFSET 1.4655 -1.808 0.9609
                        CHANNELS 6 Xposition Yposition Zposition Zrotation Xrotation Yrotation
                        End Site
                        {
                          OFFSET 0.0147 -0.0181 0.0096
                        }
                      }
                    }
                  }
                  JOINT lPinky1
                  {
                    OFFSET 4.9141 -1.269 0.3591
                    CHANNELS 6 Xposition Yposition Zposition Zrotation Xrotation Yrotation
                    JOINT lPinky2
                    {
                      OFFSET 3.1477 -1.685 0.8462
                      CHANNELS 6 Xposition Yposition Zposition Zrotation Xrotation Yrotation
                      JOINT lPinky2_End
                      {
                        OFFSET 0.8055 -1.585 0.7955
                        CHANNELS 6 Xposition Yposition Zposition Zrotation Xrotation Yrotation
                        End Site
                        {
                          OFFSET 0.0081 -0.0158 0.008
                        }
                      }
                    }
                  }
                }
              }
            }
          }
        }
        JOINT rCollar
        {
          OFFSET -1.7069 20.075 5.0056
          CHANNELS 6 Xposition Yposition Zposition Zrotation Xrotation Yrotation
          JOINT rShldr
          {
            OFFSET -13.6458 -0.047 -4.849
            CHANNELS 6 Xposition Yposition Zposition Zrotation Xrotation Yrotation
            JOINT rForeArm
            {
              OFFSET -28.3255 -0.9759 2.2888
              CHANNELS 6 Xposition Yposition Zposition Zrotation Xrotation Yrotation
              JOINT rHand
              {
                OFFSET -22.1583 -0.53 10.8316
                CHANNELS 6 Xposition Yposition Zposition Zrotation Xrotation Yrotation
                JOINT rThumb1
                {
                  OFFSET -0.786 0.112 2.5817
                  CHANNELS 6 Xposition Yposition Zposition Zrotation Xrotation Yrotation
                  JOINT rThumb2
                  {
                    OFFSET -0.3601 -0.878 4.2331
                    CHANNELS 6 Xposition Yposition Zposition Zrotation Xrotation Yrotation
                    JOINT rThumb2_End
                    {
                      OFFSET -1.8127 -1.216 2.2227
                      CHANNELS 6 Xposition Yposition Zposition Zrotation Xrotation Yrotation
                      End Site
                      {
                        OFFSET -0.0181 -0.0122 0.0222
                      }
                    }
                  }
                }
                JOINT rCarpal1
                {
                  OFFSET -0.9571 1.114 1.7695
                  CHANNELS 6 Xposition Yposition Zposition Zrotation Xrotation Yrotation
                  JOINT rIndex1
                  {
                    OFFSET -4.1246 0.487 4.1451
                    CHANNELS 6 Xposition Yposition Zposition Zrotation Xrotation Yrotation
                    JOINT rIndex2
                    {
                      OFFSET -3.4052 -1.454 2.7682
                      CHANNELS 6 Xposition Yposition Zposition Zrotation Xrotation Yrotation
                      JOINT rIndex2_End
                      {
                        OFFSET -1.4531 -1.795 1.2713
                        CHANNELS 6 Xposition Yposition Zposition Zrotation Xrotation Yrotation
                        End Site
                        {
                          OFFSET -0.0145 -0.018 0.0127
                        }
                      }
                    }
                  }
                  JOINT rMid1
                  {
                    OFFSET -5.6954 0.21 2.1184
                    CHANNELS 6 Xposition Yposition Zposition Zrotation Xrotation Yrotation
                    JOINT rMid2
                    {
                      OFFSET -3.9766 -1.54 2.3863
                      CHANNELS 6 Xposition Yposition Zposition Zrotation Xrotation Yrotation
                      JOINT rMid2_End
                      {
                        OFFSET -1.4042 -1.926 1.125
                        CHANNELS 6 Xposition Yposition Zposition Zrotation Xrotation Yrotation
                        End Site
                        {
                          OFFSET -0.014 -0.0193 0.0113
                        }
                      }
                    }
                  }
                }
                JOINT rCarpal2
                {
                  OFFSET -2.0956 0.66 -0.3894
                  CHANNELS 6 Xposition Yposition Zposition Zrotation Xrotation Yrotation
                  JOINT rRing1
                  {
                    OFFSET -5.0395 -0.09 2.4971
                    CHANNELS 6 Xposition Yposition Zposition Zrotation Xrotation Yrotation
                    JOINT rRing2
                    {
                      OFFSET -3.7921 -1.552 1.4806
                      CHANNELS 6 Xposition Yposition Zposition Zrotation Xrotation Yrotation
                      JOINT rRing2_End
                      {
                        OFFSET -1.4655 -1.808 0.9609
                        CHANNELS 6 Xposition Yposition Zposition Zrotation Xrotation Yrotation
                        End Site
                        {
                          OFFSET -0.0147 -0.0181 0.0096
                        }
                      }
                    }
                  }
                  JOINT rPinky1
                  {
                    OFFSET -4.9141 -1.269 0.3592
                    CHANNELS 6 Xposition Yposition Zposition Zrotation Xrotation Yrotation
                    JOINT rPinky2
                    {
                      OFFSET -3.1477 -1.685 0.8462
                      CHANNELS 6 Xposition Yposition Zposition Zrotation Xrotation Yrotation
                      JOINT rPinky2_End
                      {
                        OFFSET -0.8055 -1.585 0.7955
                        CHANNELS 6 Xposition Yposition Zposition Zrotation Xrotation Yrotation
                        End Site
                        {
                          OFFSET -0.0081 -0.0158 0.008
                        }
                      }
                    }
                  }
                }
              }
            }
          }
        }
      }
    }
  }
  JOINT lThigh
  {
    OFFSET 8.367 -8.2066 0.5982
    CHANNELS 6 Xposition Yposition Zposition Zrotation Xrotation Yrotation
    JOINT lShin
    {
      OFFSET 2.1923 -43.463 -0.4932
      CHANNELS 6 Xposition Yposition Zposition Zrotation Xrotation Yrotation
      JOINT lFoot
      {
        OFFSET 0.7333 -45.8593 -2.6451
        CHANNELS 6 Xposition Yposition Zposition Zrotation Xrotation Yrotation
        End Site
        {
          OFFSET 2.6618 -4.2699 12.3931
        }
      }
    }
  }
  JOINT rThigh
  {
    OFFSET -8.367 -8.2066 0.5982
    CHANNELS 6 Xposition Yposition Zposition Zrotation Xrotation Yrotation
    JOINT rShin
    {
      OFFSET -2.1923 -43.463 -0.4931
      CHANNELS 6 Xposition Yposition Zposition Zrotation Xrotation Yrotation
      JOINT rFoot
      {
        OFFSET -0.7333 -45.8593 -2.6451
        CHANNELS 6 Xposition Yposition Zposition Zrotation Xrotation Yrotation
        End Site
        {
          OFFSET -2.6618 -4.2699 12.3931
        }
      }
    }
  }
}
MOTION
Frames:	4
Frame Time:	0.0333333
-0.0012416 4.32695 74.488 -180 -85.9956 -180 0 -1.186 -1.5018 -0.00150993 0.412715 -0.0899902 4.33681e-019 9.964 0.2134 -0.00237164 0.825489 -0.179976 0 13.134 -3.2573 -0.00237162 0.825483 -0.179976 -3.46945e-018 20.686 -1.6905 3.99183e-006 12.4992 -1.97982e-005 1.73472e-018 7.238 -0.1237 -3.26203e-008 -1.92406 5.67435e-008 1.7069 20.075 5.0056 -0.269056 -4.3751 2.11593 13.6458 -0.047 -4.849 -81.7307 0.404868 3.65289 28.3255 -0.9759 2.2888 2.07945 -2.25408 -29.3065 22.1583 -0.53 10.8316 -16.1858 4.50816 7.15888 0.786 0.112 2.5817 1.39149e-015 1.88845e-015 -0 0.3601 -0.878 4.2331 1.19271e-015 1.59028e-015 -0 1.8127 -1.216 2.2227 1.78906e-015 1.39149e-015 -0 0.9571 1.114 1.7695 5.96354e-016 -1.98785e-016 -0 4.1246 0.487 4.1451 1.59028e-015 1.88845e-015 -0 3.4052 -1.454 2.7682 1.19271e-015 9.93923e-016 -0 1.4531 -1.795 1.2713 1.39149e-015 1.49089e-015 -0 5.6954 0.21 2.1184 1.59028e-015 1.88845e-015 -0 3.9766 -1.54 2.3863 1.19271e-015 9.93923e-016 -0 1.4042 -1.926 1.125 1.39149e-015 1.49089e-015 -0 2.0956 0.66 -0.3894 5.96354e-016 -1.98785e-016 -0 5.0395 -0.09 2.4971 1.59028e-015 1.88845e-015 -0 3.7921 -1.552 1.4806 1.19271e-015 9.93923e-016 -0 1.4655 -1.808 0.9609 1.39149e-015 1.49089e-015 -0 4.9141 -1.269 0.3591 1.59028e-015 1.88845e-015 -0 3.1477 -1.685 0.8462 1.19271e-015 9.93923e-016 -0 0.8055 -1.585 0.7955 1.39149e-015 1.49089e-015 -0 -1.7069 20.075 5.0056 1.91921 -0.0631755 -3.28512 -13.6458 -0.047 -4.849 81.4649 0.622982 -4.21081 -28.3255 -0.9759 2.2888 0.184574 0.545321 49.7793 -22.1583 -0.53 10.8316 15.0989 6.44636 -2.68241 -0.786 0.112 2.5817 -1.39149e-015 1.98785e-016 1.59028e-014 -0.3601 -0.878 4.2331 -1.78906e-015 9.93923e-016 1.27222e-014 -1.8127 -1.216 2.2227 -2.68359e-015 -7.95139e-016 9.54166e-015 -0.9571 1.114 1.7695 -1.2921e-015 5.96354e-016 3.18055e-015 -4.1246 0.487 4.1451 -1.88845e-015 1.68967e-015 1.27222e-014 -3.4052 -1.454 2.7682 9.93923e-016 7.95139e-016 9.54166e-015 -1.4531 -1.795 1.2713 -3.97569e-016 5.96354e-016 9.54166e-015 -5.6954 0.21 2.1184 -1.88845e-015 1.68967e-015 1.27222e-014 -3.9766 -1.54 2.3863 9.93923e-016 7.95139e-016 9.54166e-015 -1.4042 -1.926 1.125 -3.97569e-016 5.96354e-016 9.54166e-015 -2.0956 0.66 -0.3894 -1.2921e-015 5.96354e-016 3.18055e-015 -5.0395 -0.09 2.4971 -1.88845e-015 1.68967e-015 1.27222e-014 -3.7921 -1.552 1.4806 9.93923e-016 7.95139e-016 9.54166e-015 -1.4655 -1.808 0.9609 -3.97569e-016 5.96354e-016 9.54166e-015 -4.9141 -1.269 0.3592 -1.88845e-015 1.68967e-015 1.27222e-014 -3.1477 -1.685 0.8462 9.93923e-016 7.95139e-016 9.54166e-015 -0.8055 -1.585 0.7955 -3.97569e-016 5.96354e-016 9.54166e-015 8.367 -8.2066 0.5982 37.3037 -33.5476 33.3953 2.1923 -43.463 -0.4932 104.755 64.4112 -108.887 0.7333 -45.8593 -2.6451 8.42968 20.1353 -9.36771 -8.367 -8.2066 0.5982 -37.5894 -33.5623 -33.7807 -2.1923 -43.463 -0.4931 -104.753 64.4123 108.891 -0.7333 -45.8593 -2.6451 -8.72512 20.0872 9.57214 
-0.00120344 4.3266 74.4879 -180 -85.9956 -180 0 -1.186 -1.5018 -0.00145131 0.392701 -0.0899878 0 9.964 0.2134 -0.00228595 0.78538 -0.179972 -1.73472e-018 13.134 -3.2573 -0.00228598 0.785361 -0.179972 3.46945e-018 20.686 -1.6905 7.17569e-006 12.8336 -1.37331e-005 0 7.238 -0.1237 -3.43518e-008 -1.53947 -3.1842e-008 1.7069 20.075 5.0056 -0.543111 -4.23326 2.03222 13.6458 -0.047 -4.849 -81.5323 0.376925 3.58752 28.3255 -0.9759 2.2888 2.1218 -2.30543 -29.1187 22.1583 -0.53 10.8316 -16.1518 4.57183 7.00684 0.786 0.112 2.5817 -1.19271e-015 5.96354e-016 -3.18055e-015 0.3601 -0.878 4.2331 0 7.95139e-016 -0 1.8127 -1.216 2.2227 5.96354e-016 8.94531e-016 3.18055e-015 0.9571 1.114 1.7695 -1.19271e-015 -1.2921e-015 3.18055e-015 4.1246 0.487 4.1451 -3.97569e-016 2.98177e-016 -0 3.4052 -1.454 2.7682 -1.98785e-016 -6.95746e-016 3.18055e-015 1.4531 -1.795 1.2713 -3.97569e-016 0 -0 5.6954 0.21 2.1184 -3.97569e-016 2.98177e-016 -0 3.9766 -1.54 2.3863 -1.98785e-016 -6.95746e-016 3.18055e-015 1.4042 -1.926 1.125 -3.97569e-016 0 -0 2.0956 0.66 -0.3894 -1.19271e-015 -1.2921e-015 3.18055e-015 5.0395 -0.09 2.4971 -3.97569e-016 2.98177e-016 -0 3.7921 -1.552 1.4806 -1.98785e-016 -6.95746e-016 3.18055e-015 1.4655 -1.808 0.9609 -3.97569e-016 0 -0 4.9141 -1.269 0.3591 -3.97569e-016 2.98177e-016 -0 3.1477 -1.685 0.8462 -1.98785e-016 -6.95746e-016 3.18055e-015 0.8055 -1.585 0.7955 -3.97569e-016 0 -0 -1.7069 20.075 5.0056 2.13154 -0.0738378 -3.17046 -13.6458 -0.047 -4.849 81.2821 0.588813 -4.09991 -28.3255 -0.9759 2.2888 0.148051 0.461847 49.5074 -22.1583 -0.53 10.8316 15.0989 6.44636 -2.68242 -0.786 0.112 2.5817 -4.67261e-006 -2.56573e-006 -2.80997e-006 -0.3601 -0.878 4.2331 4.96962e-016 3.97569e-016 -0 -1.8127 -1.216 2.2227 5.63006e-006 3.03446e-006 -8.95316e-007 -0.9571 1.114 1.7695 -5.96354e-016 9.93923e-016 3.18055e-015 -4.1246 0.487 4.1451 -4.67261e-006 -2.56573e-006 -2.80997e-006 -3.4052 -1.454 2.7682 2.5842e-015 5.96354e-016 -3.18055e-015 -1.4531 -1.795 1.2713 5.63006e-006 3.03446e-006 -8.95316e-007 -5.6954 0.21 2.1184 -4.67261e-006 -2.56573e-006 -2.80997e-006 -3.9766 -1.54 2.3863 2.5842e-015 5.96354e-016 -3.18055e-015 -1.4042 -1.926 1.125 5.63006e-006 3.03446e-006 -8.95316e-007 -2.0956 0.66 -0.3894 -5.96354e-016 9.93923e-016 3.18055e-015 -5.0395 -0.09 2.4971 -4.67261e-006 -2.56573e-006 -2.80997e-006 -3.7921 -1.552 1.4806 2.5842e-015 5.96354e-016 -3.18055e-015 -1.4655 -1.808 0.9609 5.63006e-006 3.03446e-006 -8.95316e-007 -4.9141 -1.269 0.3592 -4.67261e-006 -2.56573e-006 -2.80997e-006 -3.1477 -1.685 0.8462 2.5842e-015 5.96354e-016 -3.18055e-015 -0.8055 -1.585 0.7955 5.63006e-006 3.03446e-006 -8.95316e-007 8.367 -8.2066 0.5982 37.0315 -33.5689 33.0809 2.1923 -43.463 -0.4932 104.754 64.4109 -108.878 0.7333 -45.8593 -2.6451 8.15461 20.1258 -9.14953 -8.367 -8.2066 0.5982 -37.3072 -33.5847 -33.4529 -2.1923 -43.463 -0.4931 -104.752 64.4119 108.882 -0.7333 -45.8593 -2.6451 -8.43991 20.0804 9.34677 
-0.00116538 4.32625 74.4878 -180 -85.9956 -180 0 -1.186 -1.5018 -0.00139257 0.372556 -0.0899689 4.33681e-019 9.964 0.2134 -0.00220021 0.74513 -0.179934 1.73472e-018 13.134 -3.2573 -0.00220018 0.745117 -0.179934 1.73472e-018 20.686 -1.6905 2.04171e-005 13.1677 -9.20199e-005 0 7.238 -0.1237 -1.81612e-008 -1.15491 8.03895e-008 1.7069 20.075 5.0056 -0.816904 -4.09068 1.94914 13.6458 -0.047 -4.849 -81.3339 0.348746 3.52227 28.3255 -0.9759 2.2888 2.16433 -2.35662 -28.9308 22.1583 -0.53 10.8316 -16.1177 4.63542 6.85472 0.786 0.112 2.5817 5.96354e-016 -3.27995e-015 -0 0.3601 -0.878 4.2331 -3.105e-006 -3.49891e-006 8.1185e-007 1.8127 -1.216 2.2227 4.57205e-015 -1.00386e-014 -6.36111e-015 0.9571 1.114 1.7695 1.98785e-016 -2.28602e-015 3.18055e-015 4.1246 0.487 4.1451 -1.98785e-016 -1.39149e-015 1.59028e-014 3.4052 -1.454 2.7682 -3.105e-006 -3.49891e-006 8.1185e-007 1.4531 -1.795 1.2713 3.77691e-015 -1.37161e-014 6.36111e-015 5.6954 0.21 2.1184 -1.98785e-016 -1.39149e-015 1.59028e-014 3.9766 -1.54 2.3863 -3.105e-006 -3.49891e-006 8.1185e-007 1.4042 -1.926 1.125 3.77691e-015 -1.37161e-014 6.36111e-015 2.0956 0.66 -0.3894 1.98785e-016 -2.28602e-015 3.18055e-015 5.0395 -0.09 2.4971 -1.98785e-016 -1.39149e-015 1.59028e-014 3.7921 -1.552 1.4806 -3.105e-006 -3.49891e-006 8.1185e-007 1.4655 -1.808 0.9609 3.77691e-015 -1.37161e-014 6.36111e-015 4.9141 -1.269 0.3591 -1.98785e-016 -1.39149e-015 1.59028e-014 3.1477 -1.685 0.8462 -3.105e-006 -3.49891e-006 8.1185e-007 0.8055 -1.585 0.7955 3.77691e-015 -1.37161e-014 6.36111e-015 -1.7069 20.075 5.0056 2.34389 -0.0837167 -3.05586 -13.6458 -0.047 -4.849 81.0993 0.55428 -3.98913 -28.3255 -0.9759 2.2888 0.111148 0.37854 49.2355 -22.1583 -0.53 10.8316 15.0989 6.44635 -2.68242 -0.786 0.112 2.5817 2.08724e-015 3.97569e-016 -3.18055e-015 -0.3601 -0.878 4.2331 8.33304e-006 4.93522e-006 1.4557e-006 -1.8127 -1.216 2.2227 1.98785e-015 -6.95746e-016 9.54166e-015 -0.9571 1.114 1.7695 4.96962e-016 6.95746e-016 -3.18055e-015 -4.1246 0.487 4.1451 2.08724e-015 3.18055e-015 9.54166e-015 -3.4052 -1.454 2.7682 8.33304e-006 4.93522e-006 1.4557e-006 -1.4531 -1.795 1.2713 1.98785e-016 -2.98177e-016 6.36111e-015 -5.6954 0.21 2.1184 2.08724e-015 3.18055e-015 9.54166e-015 -3.9766 -1.54 2.3863 8.33304e-006 4.93522e-006 1.4557e-006 -1.4042 -1.926 1.125 1.98785e-016 -2.98177e-016 6.36111e-015 -2.0956 0.66 -0.3894 4.96962e-016 6.95746e-016 -3.18055e-015 -5.0395 -0.09 2.4971 2.08724e-015 3.18055e-015 9.54166e-015 -3.7921 -1.552 1.4806 8.33304e-006 4.93522e-006 1.4557e-006 -1.4655 -1.808 0.9609 1.98785e-016 -2.98177e-016 6.36111e-015 -4.9141 -1.269 0.3592 2.08724e-015 3.18055e-015 9.54166e-015 -3.1477 -1.685 0.8462 8.33304e-006 4.93522e-006 1.4557e-006 -0.8055 -1.585 0.7955 1.98785e-016 -2.98177e-016 6.36111e-015 8.367 -8.2066 0.5982 36.7592 -33.5889 32.7664 2.1923 -43.463 -0.4932 104.752 64.4107 -108.869 0.7333 -45.8593 -2.6451 7.87956 20.1154 -8.93136 -8.367 -8.2066 0.5982 -37.0251 -33.6053 -33.125 -2.1923 -43.463 -0.4931 -104.75 64.4117 108.872 -0.7333 -45.8593 -2.6451 -8.1547 20.0726 9.12145 
-0.00112727 4.3259 74.4877 -180 -85.9956 -180 0 -1.186 -1.5018 -0.00133459 0.3527 -0.090013 4.33681e-019 9.964 0.2134 -0.00211515 0.705387 -0.180023 -1.73472e-018 13.134 -3.2573 -0.00211515 0.705374 -0.180023 5.20417e-018 20.686 -1.6905 -3.24994e-005 13.5009 0.000153406 -3.46945e-018 7.238 -0.1237 -3.80028e-008 -0.770355 1.05141e-008 1.7069 20.075 5.0056 -1.0904 -3.94901 1.86704 13.6458 -0.047 -4.849 -81.1355 0.320325 3.4571 28.3255 -0.9759 2.2888 2.20704 -2.40767 -28.7428 22.1583 -0.53 10.8316 -16.0833 4.69891 6.70257 0.786 0.112 2.5817 1.98785e-016 -8.94531e-016 6.36111e-015 0.3601 -0.878 4.2331 5.96354e-016 1.98785e-016 3.18055e-015 1.8127 -1.216 2.2227 3.97569e-016 3.97569e-016 6.36111e-015 0.9571 1.114 1.7695 5.96354e-016 -8.94531e-016 3.18055e-015 4.1246 0.487 4.1451 1.19271e-015 1.98785e-016 9.54166e-015 3.4052 -1.454 2.7682 -1.98785e-016 5.96354e-016 3.18055e-015 1.4531 -1.795 1.2713 -9.93923e-016 -4.96962e-016 3.18055e-015 5.6954 0.21 2.1184 1.19271e-015 1.98785e-016 9.54166e-015 3.9766 -1.54 2.3863 -1.98785e-016 5.96354e-016 3.18055e-015 1.4042 -1.926 1.125 -9.93923e-016 -4.96962e-016 3.18055e-015 2.0956 0.66 -0.3894 5.96354e-016 -8.94531e-016 3.18055e-015 5.0395 -0.09 2.4971 1.19271e-015 1.98785e-016 9.54166e-015 3.7921 -1.552 1.4806 -1.98785e-016 5.96354e-016 3.18055e-015 1.4655 -1.808 0.9609 -9.93923e-016 -4.96962e-016 3.18055e-015 4.9141 -1.269 0.3591 1.19271e-015 1.98785e-016 9.54166e-015 3.1477 -1.685 0.8462 -1.98785e-016 5.96354e-016 3.18055e-015 0.8055 -1.585 0.7955 -9.93923e-016 -4.96962e-016 3.18055e-015 -1.7069 20.075 5.0056 2.55625 -0.0944571 -2.94086 -13.6458 -0.047 -4.849 80.9166 0.519412 -3.87846 -28.3255 -0.9759 2.2888 0.0738494 0.295418 48.9634 -22.1583 -0.53 10.8316 15.0989 6.44635 -2.68242 -0.786 0.112 2.5817 3.229e-006 6.77052e-007 1.37549e-006 -0.3601 -0.878 4.2331 -1.2894e-005 -2.41456e-006 -4.29549e-006 -1.8127 -1.216 2.2227 4.04011e-006 -1.29777e-006 3.82762e-006 -0.9571 1.114 1.7695 -5.96354e-016 4.96962e-016 -6.36111e-015 -4.1246 0.487 4.1451 3.229e-006 6.77052e-007 1.37549e-006 -3.4052 -1.454 2.7682 -1.2894e-005 -2.41456e-006 -4.29549e-006 -1.4531 -1.795 1.2713 4.04011e-006 -1.29777e-006 3.82762e-006 -5.6954 0.21 2.1184 3.229e-006 6.77052e-007 1.37549e-006 -3.9766 -1.54 2.3863 -1.2894e-005 -2.41456e-006 -4.29549e-006 -1.4042 -1.926 1.125 4.04011e-006 -1.29777e-006 3.82762e-006 -2.0956 0.66 -0.3894 -5.96354e-016 4.96962e-016 -6.36111e-015 -5.0395 -0.09 2.4971 3.229e-006 6.77052e-007 1.37549e-006 -3.7921 -1.552 1.4806 -1.2894e-005 -2.41456e-006 -4.29549e-006 -1.4655 -1.808 0.9609 4.04011e-006 -1.29777e-006 3.82762e-006 -4.9141 -1.269 0.3592 3.229e-006 6.77052e-007 1.37549e-006 -3.1477 -1.685 0.8462 -1.2894e-005 -2.41456e-006 -4.29549e-006 -0.8055 -1.585 0.7955 4.04011e-006 -1.29777e-006 3.82762e-006 8.367 -8.2066 0.5982 36.4866 -33.6077 32.4516 2.1923 -43.463 -0.4932 104.75 64.4104 -108.86 0.7333 -45.8593 -2.6451 7.60461 20.104 -8.7133 -8.367 -8.2066 0.5982 -36.7425 -33.6248 -32.7968 -2.1923 -43.463 -0.4931 -104.749 64.4114 108.863 -0.7333 -45.8593 -2.6451 -7.86954 20.0637 8.89616 
